<svg width="633" height="581" viewBox="0 0 633 581" fill="none" xmlns="http://www.w3.org/2000/svg">
<rect width="633" height="581" fill="white"/>
<path fill-rule="evenodd" clip-rule="evenodd" d="M530.43 20.892C527.498 22.224 518.853 30.734 499.523 51.317L472.686 79.894L466.494 74.457C457.692 66.729 452.392 64.533 442.5 64.515C429.952 64.491 426.363 66.717 407.655 86.125L392.203 102.156L389.105 100.554C378.241 94.936 351.208 87.359 331.5 84.408C314.804 81.908 280.94 81.893 265 84.379C232.057 89.515 201.979 100.646 174.794 117.76C115.027 155.386 74.087 220.79 66.041 291.5C64.708 303.214 64.709 338.191 66.043 349.026C73.373 408.56 103.202 464.92 147.5 502.937C171.36 523.414 194.744 537.213 222.5 547.196C297.61 574.211 379.163 560.17 442.5 509.316C454.514 499.67 474.275 479.571 482.741 468.387C492.985 454.853 502.041 440.185 508.602 426.5C512.03 419.35 514.984 412.654 515.167 411.62C516.338 405.009 473.931 401.19 451.396 405.877C426.923 410.967 412.28 417.791 368.5 444.506C332.927 466.214 306.892 475.371 276.912 476.721C256.792 477.627 238.859 474.746 218.842 467.393C205.202 462.383 205.509 462.812 209.89 454.851L213.548 448.203L219.524 450.657C236.519 457.636 259.505 461.66 276.885 460.698C306.146 459.078 328.977 450.376 369 425.59C378.625 419.629 391.45 412.13 397.5 408.927C436.564 388.24 474.467 382.462 510.861 391.645C518.998 393.698 521.39 393.987 522.006 392.991C523.303 390.892 527.824 373.103 529.45 363.703C533.994 337.422 534.067 304.518 529.637 279C524.523 249.544 514.2 221.283 499.453 196.369L497.6 193.238L508.931 181.369C523.345 166.269 526.5 160.367 526.499 148.5C526.498 138.032 523.347 130.971 514.828 122.347C509.288 116.739 508.872 116.023 510.125 114.26C510.881 113.196 522.75 100.307 536.5 85.617C550.25 70.928 562.513 57.059 563.75 54.798C568.414 46.273 566.364 39.682 555.817 29.292C545.375 19.006 539.132 16.94 530.43 20.892ZM544.339 41.836L549.102 46.672L522.922 74.836C508.523 90.326 496.447 103 496.087 103C495.727 103 493.015 100.553 490.061 97.562L484.69 92.123L500.095 75.806C508.568 66.832 520.174 54.429 525.887 48.245C531.6 42.06 537.017 37 537.925 37C538.832 37 541.719 39.176 544.339 41.836ZM449.68 83.368C453.446 85.323 503.21 134.279 506.175 138.946C510.422 145.629 509.729 154.66 504.647 158.878C503.444 159.876 502.981 159.788 502.211 158.413C501.689 157.48 501.476 155.895 501.739 154.892C502.001 153.888 501.672 150.801 501.008 148.032C500.009 143.868 498.242 141.266 490.804 132.998C485.856 127.499 481.401 123 480.904 123C480.407 123 480 124.104 480 125.453C480 128.815 477.967 133 476.334 133C475.594 133 464.853 123.025 452.466 110.834L429.944 88.668L432.684 85.808C437.12 81.178 443.653 80.24 449.68 83.368ZM447.488 125.119L473.914 151.238L472.207 153.577C471.268 154.863 469.898 156.16 469.162 156.46C468.351 156.79 460.283 149.696 448.697 138.466C431.053 121.362 429.507 120.102 428.734 122.19C428.274 123.434 428.162 125.509 428.486 126.8C428.81 128.091 436.689 136.901 445.994 146.379L462.914 163.611L452.323 175.056C446.498 181.35 431.866 197.188 419.808 210.25C407.75 223.313 397.539 234 397.117 234C396.694 234 395.283 232.866 393.981 231.48L391.614 228.96L396.114 224.23C424.009 194.905 424.866 193.723 423.653 186.252C422.848 181.291 418.804 175.61 414.688 173.656C410.076 171.468 403.249 171.551 399.493 173.841C397.84 174.85 390.004 182.501 382.082 190.844L367.677 206.014L355.589 194.257C348.94 187.791 343.5 181.987 343.5 181.36C343.5 180.732 356.323 166.557 371.995 149.86C387.667 133.162 404.767 114.929 409.995 109.342C415.223 103.755 419.851 99.142 420.281 99.092C420.71 99.041 432.953 110.754 447.488 125.119ZM492.433 169.257C494.363 170.988 494.339 171.07 490.859 174.757C488.916 176.816 471.683 195.262 452.563 215.75C433.444 236.238 417.578 253 417.305 253C416.182 253 411 248.79 411 247.878C411 247.335 412.365 245.453 414.033 243.696C415.701 241.938 432.905 223.544 452.266 202.821C481.699 171.315 487.713 165.335 488.97 166.321C489.797 166.969 491.356 168.291 492.433 169.257ZM333.637 193.886C361.055 220.479 417.904 276.733 420.607 279.945L423.195 283.021L419.63 284.51C417.669 285.33 415.417 286 414.626 286C413.834 286 403.081 276.112 390.728 264.026L368.27 242.051L364.1 246.996C359.682 252.236 354.067 254.736 349.366 253.556C348.037 253.222 347 253.409 347 253.981C347 254.541 347.362 255 347.805 255C348.248 255 357.057 263.773 367.381 274.496L386.152 293.991L384.072 296.635C382.188 299.031 348.354 334.262 320.587 362.742C314.559 368.925 308.809 374.243 307.809 374.561C305.654 375.245 305.506 375.125 279.889 351.988C249.119 324.196 234.526 311.382 235.489 313C237.247 315.953 257.441 344.613 261.736 350.25C264.145 353.413 265.696 356 265.181 356C264.666 356 263.685 355.325 263 354.5C260.787 351.833 258.324 352.889 254.257 358.25C252.067 361.137 244.783 368.9 238.07 375.5C231.358 382.1 222.858 390.871 219.183 394.992L212.5 402.484L218 397.903C233.39 385.085 253.44 375.822 273.166 372.418L282.02 370.89L286.611 374.187L291.202 377.484L280.851 379.207C255.769 383.382 234.193 393.605 214.839 410.484L208.614 415.913L204.015 411.707C201.485 409.393 198.084 406.54 196.457 405.367L193.5 403.235L195.735 400.367C200.062 394.815 208.754 381.443 211.249 376.5C219.098 360.952 226.912 326.423 226.98 306.985C226.994 303.195 227.704 300.166 229.25 297.304C230.487 295.013 244.55 279.305 260.5 262.396C276.45 245.488 290.775 230.269 292.334 228.577C293.893 226.885 297.383 223.233 300.09 220.463C304.936 215.503 305.049 215.242 307.518 203.304C310.922 186.843 314.519 177.266 316.951 178.188C317.403 178.36 324.912 185.424 333.637 193.886ZM412.235 185.4C414.039 188.102 412.13 190.876 398.425 205.462L383.85 220.973L379.925 217.819C377.766 216.085 376 214.281 376 213.812C376 212.623 402.89 184.763 405.411 183.34C407.543 182.137 410.69 183.086 412.235 185.4ZM296.286 253.451C284.92 257.003 271.411 269.343 265.256 281.796C261.569 289.257 261.5 289.608 261.5 300.969C261.5 312.027 261.646 312.839 264.781 319.206C268.644 327.054 275.472 333.659 283.789 337.593C294.985 342.89 310.924 341.924 323.358 335.194C329.816 331.699 340.27 320.252 343.961 312.635C355.495 288.83 345.137 261.54 321.572 253.65C315.633 251.662 302.346 251.557 296.286 253.451ZM328.411 273.077C329.835 274.769 331 277.051 331 278.147C331 280.195 292.275 322.297 289.363 323.414C286.662 324.451 285.217 324.053 282.077 321.411C279.94 319.614 279 317.934 279 315.915C279 312.484 280.257 311.06 316.65 273.271C320.846 268.913 324.852 268.847 328.411 273.077ZM185.929 420.752C196.305 426.042 199.266 440.071 191.802 448.572C187.61 453.347 184.061 455 178 455C167.615 455 160 447.344 160 436.903C160 423.758 174.326 414.835 185.929 420.752Z" fill="black"/>
</svg>
